<mxfile host="app.diagrams.net" modified="2023-11-25T23:24:38.066Z" agent="Mozilla/5.0 (Windows NT 10.0; Win64; x64) AppleWebKit/537.36 (KHTML, like Gecko) Chrome/119.0.0.0 Safari/537.36" etag="unDzkIinUn0en-9jawfo" version="22.1.4" type="github">
  <diagram name="Page-1" id="ohVxvqBQ41DFN_AmDzs9">
    <mxGraphModel dx="1376" dy="800" grid="1" gridSize="10" guides="1" tooltips="1" connect="1" arrows="1" fold="1" page="1" pageScale="1" pageWidth="827" pageHeight="1169" math="0" shadow="0">
      <root>
        <mxCell id="0" />
        <mxCell id="1" parent="0" />
        <mxCell id="TP7WqvOyAWqvbbWeBFFU-6" style="edgeStyle=none;curved=1;rounded=0;orthogonalLoop=1;jettySize=auto;html=1;exitX=1;exitY=0.3333333333333333;exitDx=0;exitDy=0;exitPerimeter=0;fontSize=12;startSize=8;endSize=8;" edge="1" parent="1" source="blSs06st6KV2Z9n-WQbx-1" target="blSs06st6KV2Z9n-WQbx-2">
          <mxGeometry relative="1" as="geometry" />
        </mxCell>
        <mxCell id="TP7WqvOyAWqvbbWeBFFU-7" style="edgeStyle=none;curved=1;rounded=0;orthogonalLoop=1;jettySize=auto;html=1;exitX=1;exitY=0.3333333333333333;exitDx=0;exitDy=0;exitPerimeter=0;entryX=0;entryY=0.5;entryDx=0;entryDy=0;fontSize=12;startSize=8;endSize=8;" edge="1" parent="1" source="blSs06st6KV2Z9n-WQbx-1" target="blSs06st6KV2Z9n-WQbx-8">
          <mxGeometry relative="1" as="geometry" />
        </mxCell>
        <mxCell id="TP7WqvOyAWqvbbWeBFFU-8" style="edgeStyle=none;curved=1;rounded=0;orthogonalLoop=1;jettySize=auto;html=1;exitX=1;exitY=0.3333333333333333;exitDx=0;exitDy=0;exitPerimeter=0;entryX=0;entryY=0;entryDx=0;entryDy=0;fontSize=12;startSize=8;endSize=8;" edge="1" parent="1" source="blSs06st6KV2Z9n-WQbx-1" target="blSs06st6KV2Z9n-WQbx-9">
          <mxGeometry relative="1" as="geometry" />
        </mxCell>
        <mxCell id="blSs06st6KV2Z9n-WQbx-1" value="Voter" style="shape=umlActor;html=1;verticalLabelPosition=bottom;verticalAlign=top;align=center;fontSize=16;" parent="1" vertex="1">
          <mxGeometry x="147" y="530" width="30" height="60" as="geometry" />
        </mxCell>
        <mxCell id="TP7WqvOyAWqvbbWeBFFU-1" value="include" style="edgeStyle=none;curved=1;rounded=0;orthogonalLoop=1;jettySize=auto;html=1;exitX=0.5;exitY=0;exitDx=0;exitDy=0;fontSize=12;startSize=8;endSize=8;" edge="1" parent="1" source="blSs06st6KV2Z9n-WQbx-2" target="blSs06st6KV2Z9n-WQbx-16">
          <mxGeometry relative="1" as="geometry" />
        </mxCell>
        <mxCell id="TP7WqvOyAWqvbbWeBFFU-12" value="include" style="edgeStyle=none;curved=1;rounded=0;orthogonalLoop=1;jettySize=auto;html=1;exitX=1;exitY=0;exitDx=0;exitDy=0;entryX=0;entryY=0.5;entryDx=0;entryDy=0;fontSize=12;startSize=8;endSize=8;" edge="1" parent="1" source="blSs06st6KV2Z9n-WQbx-2" target="TP7WqvOyAWqvbbWeBFFU-11">
          <mxGeometry relative="1" as="geometry" />
        </mxCell>
        <mxCell id="blSs06st6KV2Z9n-WQbx-2" value="Register&amp;nbsp; to vote" style="ellipse;whiteSpace=wrap;html=1;fontSize=16;" parent="1" vertex="1">
          <mxGeometry x="317" y="420" width="140" height="70" as="geometry" />
        </mxCell>
        <mxCell id="TP7WqvOyAWqvbbWeBFFU-17" style="edgeStyle=none;curved=1;rounded=0;orthogonalLoop=1;jettySize=auto;html=1;exitX=0;exitY=0.3333333333333333;exitDx=0;exitDy=0;exitPerimeter=0;entryX=1;entryY=1;entryDx=0;entryDy=0;fontSize=12;startSize=8;endSize=8;" edge="1" parent="1" source="blSs06st6KV2Z9n-WQbx-7" target="TP7WqvOyAWqvbbWeBFFU-15">
          <mxGeometry relative="1" as="geometry" />
        </mxCell>
        <mxCell id="blSs06st6KV2Z9n-WQbx-7" value="Candidate" style="shape=umlActor;html=1;verticalLabelPosition=bottom;verticalAlign=top;align=center;fontSize=16;" parent="1" vertex="1">
          <mxGeometry x="651" y="550" width="30" height="60" as="geometry" />
        </mxCell>
        <mxCell id="blSs06st6KV2Z9n-WQbx-8" value="View Candidates" style="ellipse;whiteSpace=wrap;html=1;fontSize=16;" parent="1" vertex="1">
          <mxGeometry x="317" y="515" width="140" height="70" as="geometry" />
        </mxCell>
        <mxCell id="blSs06st6KV2Z9n-WQbx-9" value="Vote" style="ellipse;whiteSpace=wrap;html=1;fontSize=16;" parent="1" vertex="1">
          <mxGeometry x="317" y="610" width="140" height="70" as="geometry" />
        </mxCell>
        <mxCell id="blSs06st6KV2Z9n-WQbx-10" value="Count Votes" style="ellipse;whiteSpace=wrap;html=1;fontSize=16;" parent="1" vertex="1">
          <mxGeometry x="321" y="795" width="140" height="70" as="geometry" />
        </mxCell>
        <mxCell id="TP7WqvOyAWqvbbWeBFFU-9" style="edgeStyle=none;curved=1;rounded=0;orthogonalLoop=1;jettySize=auto;html=1;exitX=0;exitY=0.3333333333333333;exitDx=0;exitDy=0;exitPerimeter=0;entryX=1;entryY=0.5;entryDx=0;entryDy=0;fontSize=12;startSize=8;endSize=8;" edge="1" parent="1" source="blSs06st6KV2Z9n-WQbx-15" target="blSs06st6KV2Z9n-WQbx-10">
          <mxGeometry relative="1" as="geometry" />
        </mxCell>
        <mxCell id="TP7WqvOyAWqvbbWeBFFU-22" style="edgeStyle=none;curved=1;rounded=0;orthogonalLoop=1;jettySize=auto;html=1;exitX=0;exitY=0.3333333333333333;exitDx=0;exitDy=0;exitPerimeter=0;entryX=1;entryY=1;entryDx=0;entryDy=0;fontSize=12;startSize=8;endSize=8;" edge="1" parent="1" source="blSs06st6KV2Z9n-WQbx-15" target="TP7WqvOyAWqvbbWeBFFU-21">
          <mxGeometry relative="1" as="geometry">
            <mxPoint x="461" y="740" as="targetPoint" />
          </mxGeometry>
        </mxCell>
        <mxCell id="TP7WqvOyAWqvbbWeBFFU-24" style="edgeStyle=none;curved=1;rounded=0;orthogonalLoop=1;jettySize=auto;html=1;exitX=0;exitY=0.3333333333333333;exitDx=0;exitDy=0;exitPerimeter=0;entryX=1;entryY=0.5;entryDx=0;entryDy=0;fontSize=12;startSize=8;endSize=8;" edge="1" parent="1" source="blSs06st6KV2Z9n-WQbx-15" target="TP7WqvOyAWqvbbWeBFFU-23">
          <mxGeometry relative="1" as="geometry" />
        </mxCell>
        <mxCell id="TP7WqvOyAWqvbbWeBFFU-26" style="edgeStyle=none;curved=1;rounded=0;orthogonalLoop=1;jettySize=auto;html=1;exitX=0;exitY=0.3333333333333333;exitDx=0;exitDy=0;exitPerimeter=0;entryX=1;entryY=0.5;entryDx=0;entryDy=0;fontSize=12;startSize=8;endSize=8;" edge="1" parent="1" source="blSs06st6KV2Z9n-WQbx-15" target="TP7WqvOyAWqvbbWeBFFU-25">
          <mxGeometry relative="1" as="geometry" />
        </mxCell>
        <mxCell id="blSs06st6KV2Z9n-WQbx-15" value="Election Authority" style="shape=umlActor;html=1;verticalLabelPosition=bottom;verticalAlign=top;align=center;fontSize=16;" parent="1" vertex="1">
          <mxGeometry x="651" y="812" width="30" height="60" as="geometry" />
        </mxCell>
        <mxCell id="blSs06st6KV2Z9n-WQbx-16" value="Validate Identity" style="ellipse;whiteSpace=wrap;html=1;fontSize=16;" parent="1" vertex="1">
          <mxGeometry x="237" y="290" width="140" height="70" as="geometry" />
        </mxCell>
        <mxCell id="TP7WqvOyAWqvbbWeBFFU-11" value="Login/Logout" style="ellipse;whiteSpace=wrap;html=1;fontSize=16;" vertex="1" parent="1">
          <mxGeometry x="437" y="240" width="140" height="70" as="geometry" />
        </mxCell>
        <mxCell id="TP7WqvOyAWqvbbWeBFFU-19" value="include" style="edgeStyle=none;curved=1;rounded=0;orthogonalLoop=1;jettySize=auto;html=1;exitX=0;exitY=0;exitDx=0;exitDy=0;entryX=1;entryY=1;entryDx=0;entryDy=0;fontSize=12;startSize=8;endSize=8;" edge="1" parent="1" source="TP7WqvOyAWqvbbWeBFFU-15" target="blSs06st6KV2Z9n-WQbx-16">
          <mxGeometry relative="1" as="geometry" />
        </mxCell>
        <mxCell id="TP7WqvOyAWqvbbWeBFFU-20" value="include" style="edgeStyle=none;curved=1;rounded=0;orthogonalLoop=1;jettySize=auto;html=1;exitX=0.5;exitY=0;exitDx=0;exitDy=0;entryX=0.5;entryY=1;entryDx=0;entryDy=0;fontSize=12;startSize=8;endSize=8;" edge="1" parent="1" source="TP7WqvOyAWqvbbWeBFFU-15" target="TP7WqvOyAWqvbbWeBFFU-11">
          <mxGeometry relative="1" as="geometry" />
        </mxCell>
        <mxCell id="TP7WqvOyAWqvbbWeBFFU-15" value="Register as a candidate" style="ellipse;whiteSpace=wrap;html=1;fontSize=16;" vertex="1" parent="1">
          <mxGeometry x="501" y="420" width="140" height="70" as="geometry" />
        </mxCell>
        <mxCell id="TP7WqvOyAWqvbbWeBFFU-21" value="Manage Candidates" style="ellipse;whiteSpace=wrap;html=1;fontSize=16;" vertex="1" parent="1">
          <mxGeometry x="317" y="700" width="140" height="70" as="geometry" />
        </mxCell>
        <mxCell id="TP7WqvOyAWqvbbWeBFFU-23" value="Publish Results" style="ellipse;whiteSpace=wrap;html=1;fontSize=16;" vertex="1" parent="1">
          <mxGeometry x="321" y="885" width="140" height="70" as="geometry" />
        </mxCell>
        <mxCell id="TP7WqvOyAWqvbbWeBFFU-25" value="Close Elections" style="ellipse;whiteSpace=wrap;html=1;fontSize=16;" vertex="1" parent="1">
          <mxGeometry x="321" y="975" width="140" height="70" as="geometry" />
        </mxCell>
      </root>
    </mxGraphModel>
  </diagram>
</mxfile>
